<svg xmlns="http://www.w3.org/2000/svg" width="11" height="12" viewBox="0 0 11 12" fill="none">
        <path d="M9.10353 3.40497L9.65495 2.85363C9.82809 2.68048 9.82809 2.39976 9.65495 2.22662C9.4818 2.05347 9.20108 2.05347 9.02793 2.22662L8.44997 2.80458C7.62974 2.17818 6.60921 1.80173 5.5 1.80173C2.81179 1.80173 0.624695 3.98882 0.624695 6.67704C0.624695 9.36525 2.81179 11.5523 5.5 11.5523C8.18821 11.5523 10.3753 9.36525 10.3753 6.67704C10.3753 5.41714 9.89067 4.2713 9.10353 3.40497ZM5.5 10.6659C3.3005 10.6659 1.51111 8.87654 1.51111 6.67704C1.51111 4.47753 3.3005 2.68815 5.5 2.68815C7.6995 2.68815 9.48889 4.47753 9.48889 6.67704C9.48889 8.87654 7.6995 10.6659 5.5 10.6659ZM6.94779 7.2089C7.14339 7.35605 7.18309 7.63375 7.03594 7.82935C6.94966 7.94518 6.81606 8.00666 6.68074 8.00666C6.58855 8.00666 6.4952 7.97769 6.41542 7.91801L5.23353 7.03159C5.12243 6.94767 5.05621 6.8165 5.05621 6.67704V4.60872C5.05621 4.36407 5.25477 4.16551 5.49942 4.16551C5.74407 4.16551 5.94263 4.36407 5.94263 4.60872V6.45543L6.94779 7.2089ZM3.57943 0.472102C3.57943 0.22745 3.77798 0.0288925 4.02263 0.0288925H6.97737C7.22202 0.0288925 7.42057 0.22745 7.42057 0.472102C7.42057 0.716754 7.22202 0.915312 6.97737 0.915312H4.02263C3.77798 0.915312 3.57943 0.716754 3.57943 0.472102Z" fill="#ffffff"></path>
      </svg>