<svg xmlns="http://www.w3.org/2000/svg" width="18" height="18" class="social-img" viewBox="0 0 9 9" fill="none">
                      <path fill-rule="evenodd" clip-rule="evenodd" d="M0.746094 3.26129C0.746094 1.90974 1.74214 0.814087 2.97083 0.814087H5.93714C7.16582 0.814087 8.16187 1.90974 8.16187 3.26129V6.52424C8.16187 7.87579 7.16582 8.97144 5.93714 8.97144H2.97083C1.74214 8.97144 0.746094 7.87579 0.746094 6.52424V3.26129ZM2.97083 1.62982C2.1517 1.62982 1.48767 2.36026 1.48767 3.26129V6.52424C1.48767 7.42527 2.1517 8.15571 2.97083 8.15571H5.93714C6.75626 8.15571 7.42029 7.42527 7.42029 6.52424V3.26129C7.42029 2.36026 6.75626 1.62982 5.93714 1.62982H2.97083ZM3.7124 4.89276C3.7124 5.34328 4.04442 5.7085 4.45398 5.7085C4.86354 5.7085 5.19556 5.34328 5.19556 4.89276C5.19556 4.44225 4.86354 4.07703 4.45398 4.07703C4.04442 4.07703 3.7124 4.44225 3.7124 4.89276ZM4.45398 3.26129C3.63486 3.26129 2.97083 3.99173 2.97083 4.89276C2.97083 5.7938 3.63486 6.52424 4.45398 6.52424C5.27311 6.52424 5.93714 5.7938 5.93714 4.89276C5.93714 3.99173 5.27311 3.26129 4.45398 3.26129ZM6.12253 2.44556C5.81536 2.44556 5.56635 2.71947 5.56635 3.05736C5.56635 3.39525 5.81536 3.66916 6.12253 3.66916C6.4297 3.66916 6.67871 3.39525 6.67871 3.05736C6.67871 2.71947 6.4297 2.44556 6.12253 2.44556Z" fill="#141317"></path>
                  </svg>