<svg xmlns="http://www.w3.org/2000/svg" width="18" height="18" class="social-img" viewBox="0 0 8 7" fill="none">
                    <path fill-rule="evenodd" clip-rule="evenodd" d="M1.50015 1.1998C1.99665 1.11291 2.7617 1.03264 3.89246 1.03264C5.02321 1.03264 5.78827 1.11291 6.28476 1.1998C6.62039 1.25854 6.85877 1.58985 6.85877 2.06386V5.00707C6.85877 5.48107 6.62039 5.81239 6.28476 5.87113C5.78827 5.95802 5.02321 6.03829 3.89246 6.03829C2.76171 6.03829 1.99665 5.95802 1.50015 5.87113C1.16453 5.81239 0.926148 5.48107 0.926148 5.00707V2.06386C0.926148 1.58985 1.16453 1.25854 1.50015 1.1998ZM3.89246 0.198364C2.73147 0.198364 1.92747 0.280703 1.38616 0.375442C0.61158 0.511008 0.18457 1.27387 0.18457 2.06386V5.00707C0.18457 5.79706 0.611581 6.55992 1.38616 6.69548C1.92747 6.79022 2.73147 6.87256 3.89246 6.87256C5.05345 6.87256 5.85745 6.79022 6.39876 6.69548C7.17334 6.55992 7.60035 5.79706 7.60035 5.00707V2.06386C7.60035 1.27387 7.17334 0.511008 6.39876 0.375442C5.85745 0.280703 5.05345 0.198364 3.89246 0.198364ZM3.34671 2.33341C3.46727 2.26082 3.61357 2.26878 3.72735 2.35411L4.83971 3.18839C4.94287 3.26575 5.00482 3.39599 5.00482 3.53546C5.00482 3.67494 4.94287 3.80518 4.83971 3.88254L3.72735 4.71682C3.61357 4.80215 3.46727 4.81011 3.34671 4.73752C3.22615 4.66493 3.15088 4.52358 3.15088 4.36974V2.70119C3.15088 2.54735 3.22615 2.406 3.34671 2.33341Z" fill="#141317"></path>
                  </svg>