<svg class="close-menu-ioc" xmlns="http://www.w3.org/2000/svg" width="20" height="18" viewBox="0 0 20 18">
                                <path fill="#24272a" d="M19.95 16.75l-.05-.4-1.2-1-5.2-4.2c-.1-.05-.3-.2-.6-.5l-.7-.55c-.15-.1-.5-.45-1-1.1l-.1-.1c.2-.15.4-.35.6-.55l1.95-1.85 1.1-1c1-1 1.7-1.65 2.1-1.9l.5-.35c.4-.25.65-.45.75-.45.2-.15.45-.35.65-.6s.3-.5.3-.7l-.3-.65c-.55.2-1.2.65-2.05 1.35-.85.75-1.65 1.55-2.5 2.5-.8.9-1.6 1.65-2.4 2.3-.8.65-1.4.95-1.9 1-.15 0-1.5-1.05-4.1-3.2C3.1 2.6 1.45 1.2.7.55L.45.1c-.1.05-.2.15-.3.3C.05.55 0 .7 0 .85l.05.35.05.4 1.2 1 5.2 4.15c.1.05.3.2.6.5l.7.6c.15.1.5.45 1 1.1l.1.1c-.2.15-.4.35-.6.55l-1.95 1.85-1.1 1c-1 1-1.7 1.65-2.1 1.9l-.5.35c-.4.25-.65.45-.75.45-.25.15-.45.35-.65.6-.15.3-.25.55-.25.75l.3.65c.55-.2 1.2-.65 2.05-1.35.85-.75 1.65-1.55 2.5-2.5.8-.9 1.6-1.65 2.4-2.3.8-.65 1.4-.95 1.9-1 .15 0 1.5 1.05 4.1 3.2 2.6 2.15 4.3 3.55 5.05 4.2l.2.45c.1-.05.2-.15.3-.3.1-.15.15-.3.15-.45z"></path>
                            </svg>