<svg width="14" height="13" viewBox="0 0 14 13" fill="none" xmlns="http://www.w3.org/2000/svg">
                    <path d="M9.80006 12.5C9.66163 12.5 9.52632 12.4585 9.41123 12.3809C9.29614 12.3033 9.20644 12.193 9.15347 12.0639C9.1005 11.9349 9.08664 11.7928 9.11364 11.6558C9.14064 11.5188 9.20728 11.393 9.30515 11.2942L11.6103 8.96804H2.79991C2.61426 8.96804 2.4362 8.89361 2.30493 8.76114C2.17365 8.62866 2.0999 8.44899 2.0999 8.26164C2.0999 8.0743 2.17365 7.89462 2.30493 7.76215C2.4362 7.62967 2.61426 7.55525 2.79991 7.55525H13.3001C13.4386 7.55528 13.5739 7.59672 13.689 7.67435C13.8041 7.75197 13.8938 7.86228 13.9467 7.99134C13.9997 8.1204 14.0136 8.2624 13.9866 8.39941C13.9596 8.53642 13.8929 8.66227 13.795 8.76106L10.295 12.293C10.1637 12.4255 9.9857 12.5 9.80006 12.5ZM11.9001 4.72968C11.9001 4.54233 11.8264 4.36266 11.6951 4.23018C11.5638 4.09771 11.3857 4.02328 11.2001 4.02328H2.3897L4.69485 1.69713C4.82236 1.56391 4.89292 1.38547 4.89133 1.20025C4.88973 1.01504 4.81611 0.837869 4.68632 0.706898C4.55654 0.575927 4.38096 0.501636 4.19742 0.500027C4.01388 0.498417 3.83705 0.569618 3.70503 0.698293L0.204955 4.23026C0.107087 4.32905 0.0404406 4.4549 0.0134427 4.59191C-0.0135551 4.72892 0.000307272 4.87092 0.0532774 4.99998C0.106248 5.12904 0.195947 5.23935 0.311036 5.31697C0.426126 5.3946 0.561438 5.43604 0.699866 5.43607H11.2001C11.3857 5.43607 11.5638 5.36165 11.6951 5.22917C11.8264 5.0967 11.9001 4.91703 11.9001 4.72968Z" fill="#4F4632"></path>
                </svg>