<svg width="14" height="11" viewBox="0 0 14 11" fill="none" xmlns="http://www.w3.org/2000/svg">
                <path d="M6.99996 3.15912C5.70988 3.15912 4.66016 4.20885 4.66016 5.49892C4.66016 6.789 5.70988 7.83873 6.99996 7.83873C8.29004 7.83873 9.33977 6.789 9.33977 5.49892C9.33977 4.20885 8.29004 3.15912 6.99996 3.15912ZM6.99996 6.8724C6.24254 6.8724 5.62648 6.25635 5.62648 5.49892C5.62648 4.7415 6.24254 4.12545 6.99996 4.12545C7.75738 4.12545 8.37344 4.7415 8.37344 5.49892C8.37344 6.25635 7.75738 6.8724 6.99996 6.8724Z" fill="#4F4632"></path>
                <path d="M13.4184 4.21786C13.1537 3.8509 12.6889 3.28735 11.9785 2.68715C11.2954 2.10993 10.561 1.64782 9.79562 1.31368C8.87633 0.912544 7.9357 0.709106 7 0.709106C6.0643 0.709106 5.12367 0.912544 4.2041 1.31368C3.43875 1.64754 2.7043 2.10965 2.02125 2.68715C1.31086 3.28762 0.846016 3.8509 0.581328 4.21786C0.195781 4.7527 0 5.18418 0 5.5C0 5.81582 0.195508 6.24731 0.581602 6.78215C0.846289 7.14911 1.31113 7.71266 2.02152 8.31286C2.70457 8.89008 3.43902 9.35219 4.20437 9.68633C5.12367 10.0875 6.06457 10.2909 7.00027 10.2909C7.93598 10.2909 8.8766 10.0875 9.79617 9.68633C10.5615 9.35247 11.296 8.89036 11.979 8.31286C12.6894 7.71239 13.1543 7.14911 13.4189 6.78215C13.8045 6.24731 14 5.81582 14 5.5C14 5.18418 13.8045 4.7527 13.4184 4.21786ZM11.293 7.62653C10.3592 8.40118 8.85637 9.32457 7 9.32457C5.14363 9.32457 3.64109 8.40118 2.70703 7.62653C1.56406 6.67852 1.00816 5.73625 0.967422 5.5C1.00789 5.26375 1.56406 4.32149 2.70703 3.37348C3.64082 2.59883 5.14363 1.67543 7 1.67543C8.85609 1.67543 10.3589 2.59883 11.293 3.37348C12.4359 4.32149 12.9921 5.26375 13.0326 5.5C12.9918 5.73625 12.4359 6.67852 11.293 7.62653Z" fill="#4F4632"></path>
                </svg>