<svg width="9" height="9" viewBox="0 0 9 9" fill="none" xmlns="http://www.w3.org/2000/svg">
                                            <path fill-rule="evenodd" clip-rule="evenodd" d="M0.746094 3.26117C0.746094 1.90962 1.74214 0.813965 2.97083 0.813965H5.93714C7.16582 0.813965 8.16187 1.90962 8.16187 3.26117V6.52411C8.16187 7.87567 7.16582 8.97132 5.93714 8.97132H2.97083C1.74214 8.97132 0.746094 7.87567 0.746094 6.52411V3.26117ZM2.97083 1.6297C2.1517 1.6297 1.48767 2.36013 1.48767 3.26117V6.52411C1.48767 7.42515 2.1517 8.15558 2.97083 8.15558H5.93714C6.75626 8.15558 7.42029 7.42515 7.42029 6.52411V3.26117C7.42029 2.36013 6.75626 1.6297 5.93714 1.6297H2.97083ZM3.7124 4.89264C3.7124 5.34316 4.04442 5.70838 4.45398 5.70838C4.86354 5.70838 5.19556 5.34316 5.19556 4.89264C5.19556 4.44212 4.86354 4.07691 4.45398 4.07691C4.04442 4.07691 3.7124 4.44212 3.7124 4.89264ZM4.45398 3.26117C3.63486 3.26117 2.97083 3.99161 2.97083 4.89264C2.97083 5.79368 3.63486 6.52411 4.45398 6.52411C5.27311 6.52411 5.93714 5.79368 5.93714 4.89264C5.93714 3.99161 5.27311 3.26117 4.45398 3.26117ZM6.12253 2.44544C5.81536 2.44544 5.56635 2.71935 5.56635 3.05724C5.56635 3.39513 5.81536 3.66904 6.12253 3.66904C6.4297 3.66904 6.67871 3.39513 6.67871 3.05724C6.67871 2.71935 6.4297 2.44544 6.12253 2.44544Z"></path>
                                        </svg>