<svg xmlns="http://www.w3.org/2000/svg" width="16" height="13" viewBox="0 0 16 13" fill="none">
                    <path d="M7.98803 12.8426C7.90897 12.8426 7.82988 12.8275 7.75604 12.7966C7.51215 12.6945 1.77217 10.2471 0.851794 5.88868C0.496026 4.20249 0.85329 2.55743 1.80722 1.48907C2.57917 0.623688 3.68896 0.163556 5.01731 0.157384C5.02402 0.157384 5.03073 0.157384 5.0367 0.157384C6.55225 0.157384 7.4764 0.950786 7.9873 1.62622C8.50044 0.948043 9.43195 0.151213 10.9572 0.157384C12.2863 0.163556 13.3969 0.623688 14.1696 1.48907C15.122 2.55674 15.4785 4.20179 15.122 5.88935C14.2031 10.2478 8.46235 12.6959 8.21846 12.7974C8.14612 12.8275 8.06709 12.8426 7.98803 12.8426ZM5.03597 1.1853C5.03149 1.1853 5.02779 1.1853 5.02331 1.1853C4.02537 1.18941 3.2348 1.51101 2.67243 2.14119C1.92733 2.97571 1.65807 4.30328 1.95044 5.69256C2.66272 9.06906 6.93862 11.2634 7.98803 11.7557C9.03743 11.2634 13.3134 9.06906 14.0249 5.69256C14.3187 4.3026 14.0495 2.97502 13.3059 2.14119C12.7435 1.51169 11.9529 1.19077 10.9527 1.18597C10.9483 1.18597 10.9438 1.18597 10.9401 1.18597C9.17094 1.18597 8.54373 2.81595 8.51837 2.88521C8.4408 3.09298 8.22743 3.23422 7.98876 3.23422C7.98726 3.23422 7.9865 3.23422 7.98575 3.23422C7.74634 3.23354 7.53303 3.09297 7.45696 2.88383C7.43235 2.81526 6.80437 1.1853 5.03597 1.1853Z" fill="#4F4632"></path>
                </svg>