<svg class="menu-open-arrow" xmlns="http://www.w3.org/2000/svg" width="20" height="11" viewBox="0 0 20 11">
                                                <path fill="#24272a" d="M.268 1.076C.373.918.478.813.584.76l.21.474c.79.684 2.527 2.158 5.21 4.368 2.738 2.21 4.159 3.316 4.264 3.316.474-.053 1.158-.369 1.947-1.053.842-.631 1.632-1.42 2.474-2.368.895-.948 1.737-1.842 2.632-2.58.842-.789 1.578-1.262 2.105-1.42l.316.684c0 .21-.106.474-.316.737-.053.21-.263.421-.474.579-.053.052-.316.21-.737.474l-.526.368c-.421.263-1.105.947-2.158 2l-1.105 1.053-2.053 1.947c-1 .947-1.579 1.421-1.842 1.421-.263 0-.684-.263-1.158-.895-.526-.631-.842-1-1.052-1.105l-.737-.579c-.316-.316-.527-.474-.632-.474l-5.42-4.315L.267 2.339l-.105-.421-.053-.369c0-.157.053-.315.158-.473z"></path>
                                            </svg>