<svg xmlns="http://www.w3.org/2000/svg" width="11" height="9" viewBox="0 0 11 9" fill="none">
              <path d="M0.669553 4.64377C0.688588 4.68986 0.716073 4.73139 0.750639 4.76595L4.25728 8.27259C4.33041 8.34573 4.42661 8.38278 4.52279 8.38278C4.61898 8.38278 4.71517 8.34623 4.78831 8.27259C4.93509 8.12581 4.93509 7.88784 4.78831 7.74107L1.9229 4.87566H10.0332C10.2406 4.87566 10.4089 4.70734 10.4089 4.49995C10.4089 4.29255 10.2406 4.12423 10.0332 4.12423H1.92339L4.7888 1.25883C4.93558 1.11205 4.93558 0.874079 4.7888 0.727301C4.64202 0.580524 4.40405 0.580524 4.25728 0.727301L0.750639 4.23394C0.716073 4.2685 0.688588 4.31003 0.669553 4.35612C0.63148 4.44829 0.63148 4.5516 0.669553 4.64377Z" fill="white"></path>
            </svg>