<svg xmlns="http://www.w3.org/2000/svg" width="18" height="18" class="social-img" viewBox="0 0 8 8" fill="none">
                    <path fill-rule="evenodd" clip-rule="evenodd" d="M3.59564 0.985352C2.89847 0.985352 2.03687 1.19755 1.34001 1.68137C0.628737 2.1752 0.09375 2.95132 0.09375 4.03641C0.09375 4.69785 0.333058 5.19927 0.574931 5.53513C0.679323 5.68009 0.784268 5.79444 0.871055 5.8785L0.518039 7.18567C0.479016 7.33016 0.53443 7.48246 0.659933 7.57566C0.785437 7.66886 0.958064 7.68589 1.10197 7.61928L2.58869 6.93115C3.43084 7.19234 4.58464 7.10329 5.54435 6.6951C6.5965 6.24759 7.50953 5.372 7.50953 4.03641C7.50953 2.8556 6.94689 2.06818 6.14832 1.59396C5.37505 1.13476 4.41156 0.985352 3.59564 0.985352ZM1.7294 5.84513C1.76936 5.69716 1.71023 5.54147 1.57928 5.44919L1.57783 5.44812C1.57527 5.44623 1.57001 5.44227 1.56243 5.43625C1.54722 5.42419 1.52285 5.40398 1.49229 5.37569C1.43096 5.31892 1.34611 5.23087 1.26052 5.11203C1.09041 4.87581 0.917725 4.51913 0.917725 4.03641C0.917725 3.21459 1.30971 2.65587 1.8344 2.29159C2.3735 1.9173 3.05686 1.74812 3.59564 1.74812C4.32448 1.74812 5.11194 1.88474 5.70343 2.23598C6.26962 2.57221 6.68555 3.11962 6.68555 4.03641C6.68555 4.98912 6.05362 5.63906 5.20034 6.00199C4.3271 6.3734 3.3179 6.3989 2.72797 6.16485C2.61658 6.12066 2.48982 6.12411 2.38143 6.17428L1.53466 6.56621L1.7294 5.84513ZM3.64702 3.35722C3.48309 3.23582 3.24677 3.24794 3.09833 3.38535L2.27436 4.14812C2.11347 4.29706 2.11347 4.53854 2.27436 4.68748C2.43525 4.83642 2.6961 4.83642 2.85699 4.68748L3.42023 4.16608L4.16225 4.71561C4.32618 4.83701 4.5625 4.82489 4.71094 4.68748L5.53491 3.92471C5.69581 3.77577 5.69581 3.53429 5.53491 3.38535C5.37402 3.23642 5.11317 3.23642 4.95228 3.38535L4.38904 3.90675L3.64702 3.35722Z" fill="#141317"></path>
                  </svg>