<svg width="8" height="7" viewBox="0 0 8 7" fill="none" xmlns="http://www.w3.org/2000/svg">
                                            <path fill-rule="evenodd" clip-rule="evenodd" d="M1.50015 1.19968C1.99665 1.11278 2.76171 1.03252 3.89246 1.03252C5.02321 1.03252 5.78827 1.11278 6.28476 1.19968C6.62039 1.25842 6.85877 1.58973 6.85877 2.06374V5.00695C6.85877 5.48095 6.62039 5.81226 6.28476 5.871C5.78827 5.9579 5.02321 6.03817 3.89246 6.03817C2.76171 6.03817 1.99665 5.9579 1.50015 5.871C1.16453 5.81226 0.926148 5.48095 0.926148 5.00695V2.06374C0.926148 1.58973 1.16453 1.25842 1.50015 1.19968ZM3.89246 0.198242C2.73147 0.198242 1.92747 0.280581 1.38616 0.37532C0.61158 0.510886 0.18457 1.27374 0.18457 2.06374V5.00695C0.18457 5.79694 0.611581 6.5598 1.38616 6.69536C1.92747 6.7901 2.73147 6.87244 3.89246 6.87244C5.05345 6.87244 5.85745 6.7901 6.39876 6.69536C7.17334 6.5598 7.60035 5.79694 7.60035 5.00695V2.06374C7.60035 1.27374 7.17334 0.510886 6.39876 0.37532C5.85745 0.280581 5.05345 0.198242 3.89246 0.198242ZM3.34671 2.33329C3.46727 2.2607 3.61357 2.26865 3.72735 2.35399L4.83971 3.18826C4.94287 3.26563 5.00482 3.39587 5.00482 3.53534C5.00482 3.67481 4.94287 3.80506 4.83971 3.88242L3.72735 4.7167C3.61357 4.80203 3.46727 4.80999 3.34671 4.7374C3.22615 4.66481 3.15088 4.52346 3.15088 4.36962V2.70107C3.15088 2.54723 3.22615 2.40588 3.34671 2.33329Z"></path>
                                        </svg>